<mxfile host="app.diagrams.net" modified="2023-06-09T14:14:54.368Z" agent="Mozilla/5.0 (Windows NT 10.0; Win64; x64) AppleWebKit/537.36 (KHTML, like Gecko) Chrome/114.0.0.0 Safari/537.36 Edg/114.0.1823.41" etag="gyTe-0BgAV5cwxa8MQEY" version="21.3.7" type="github">
  <diagram id="C5RBs43oDa-KdzZeNtuy" name="Page-1">
    <mxGraphModel dx="763" dy="1157" grid="1" gridSize="10" guides="1" tooltips="1" connect="1" arrows="1" fold="1" page="1" pageScale="1" pageWidth="827" pageHeight="1169" math="0" shadow="0">
      <root>
        <mxCell id="WIyWlLk6GJQsqaUBKTNV-0" />
        <mxCell id="WIyWlLk6GJQsqaUBKTNV-1" parent="WIyWlLk6GJQsqaUBKTNV-0" />
        <mxCell id="BLTxVABKI-hKOuikqQmN-2" value="" style="shape=cylinder3;whiteSpace=wrap;html=1;boundedLbl=1;backgroundOutline=1;size=15;" vertex="1" parent="WIyWlLk6GJQsqaUBKTNV-1">
          <mxGeometry x="350" y="210" width="139" height="150" as="geometry" />
        </mxCell>
        <mxCell id="BLTxVABKI-hKOuikqQmN-5" style="edgeStyle=orthogonalEdgeStyle;rounded=0;orthogonalLoop=1;jettySize=auto;html=1;exitX=1;exitY=0.5;exitDx=0;exitDy=0;entryX=0;entryY=0.5;entryDx=0;entryDy=0;" edge="1" parent="WIyWlLk6GJQsqaUBKTNV-1" source="BLTxVABKI-hKOuikqQmN-0" target="BLTxVABKI-hKOuikqQmN-4">
          <mxGeometry relative="1" as="geometry" />
        </mxCell>
        <mxCell id="BLTxVABKI-hKOuikqQmN-0" value="&lt;font size=&quot;1&quot; face=&quot;Times New Roman&quot;&gt;&lt;b style=&quot;font-size: 18px;&quot;&gt;Producer&lt;/b&gt;&lt;/font&gt;" style="rounded=1;whiteSpace=wrap;html=1;" vertex="1" parent="WIyWlLk6GJQsqaUBKTNV-1">
          <mxGeometry x="120" y="280" width="120" height="60" as="geometry" />
        </mxCell>
        <mxCell id="BLTxVABKI-hKOuikqQmN-3" value="&lt;font face=&quot;Times New Roman&quot; style=&quot;font-size: 17px;&quot;&gt;lpush&lt;/font&gt;" style="text;html=1;strokeColor=none;fillColor=none;align=center;verticalAlign=middle;whiteSpace=wrap;rounded=0;fontSize=17;" vertex="1" parent="WIyWlLk6GJQsqaUBKTNV-1">
          <mxGeometry x="260" y="280" width="60" height="30" as="geometry" />
        </mxCell>
        <mxCell id="BLTxVABKI-hKOuikqQmN-4" value="&lt;font style=&quot;font-size: 17px;&quot; face=&quot;Times New Roman&quot;&gt;List&lt;/font&gt;" style="rounded=1;whiteSpace=wrap;html=1;" vertex="1" parent="WIyWlLk6GJQsqaUBKTNV-1">
          <mxGeometry x="374.5" y="290" width="90" height="40" as="geometry" />
        </mxCell>
        <mxCell id="BLTxVABKI-hKOuikqQmN-6" value="&lt;font face=&quot;Times New Roman&quot; style=&quot;font-size: 21px;&quot;&gt;Redis&lt;/font&gt;" style="text;html=1;strokeColor=none;fillColor=none;align=center;verticalAlign=middle;whiteSpace=wrap;rounded=0;fontSize=21;" vertex="1" parent="WIyWlLk6GJQsqaUBKTNV-1">
          <mxGeometry x="389.5" y="250" width="60" height="30" as="geometry" />
        </mxCell>
        <mxCell id="BLTxVABKI-hKOuikqQmN-8" value="&lt;font size=&quot;1&quot; face=&quot;Times New Roman&quot;&gt;&lt;b style=&quot;font-size: 18px;&quot;&gt;Consumer&lt;/b&gt;&lt;/font&gt;" style="rounded=1;whiteSpace=wrap;html=1;" vertex="1" parent="WIyWlLk6GJQsqaUBKTNV-1">
          <mxGeometry x="610" y="190" width="120" height="60" as="geometry" />
        </mxCell>
        <mxCell id="BLTxVABKI-hKOuikqQmN-10" value="" style="endArrow=classic;html=1;rounded=0;entryX=1;entryY=0.25;entryDx=0;entryDy=0;" edge="1" parent="WIyWlLk6GJQsqaUBKTNV-1" target="BLTxVABKI-hKOuikqQmN-4">
          <mxGeometry width="50" height="50" relative="1" as="geometry">
            <mxPoint x="610" y="220" as="sourcePoint" />
            <mxPoint x="530" y="270" as="targetPoint" />
          </mxGeometry>
        </mxCell>
        <mxCell id="BLTxVABKI-hKOuikqQmN-11" value="&lt;font size=&quot;1&quot; face=&quot;Times New Roman&quot;&gt;&lt;b style=&quot;font-size: 18px;&quot;&gt;Consumer&lt;/b&gt;&lt;/font&gt;" style="rounded=1;whiteSpace=wrap;html=1;" vertex="1" parent="WIyWlLk6GJQsqaUBKTNV-1">
          <mxGeometry x="610" y="280" width="120" height="60" as="geometry" />
        </mxCell>
        <mxCell id="BLTxVABKI-hKOuikqQmN-12" value="&lt;font size=&quot;1&quot; face=&quot;Times New Roman&quot;&gt;&lt;b style=&quot;font-size: 18px;&quot;&gt;Consumer&lt;/b&gt;&lt;/font&gt;" style="rounded=1;whiteSpace=wrap;html=1;" vertex="1" parent="WIyWlLk6GJQsqaUBKTNV-1">
          <mxGeometry x="610" y="370" width="120" height="60" as="geometry" />
        </mxCell>
        <mxCell id="BLTxVABKI-hKOuikqQmN-15" value="" style="endArrow=classic;html=1;rounded=0;entryX=1;entryY=0.5;entryDx=0;entryDy=0;exitX=0;exitY=0.5;exitDx=0;exitDy=0;" edge="1" parent="WIyWlLk6GJQsqaUBKTNV-1" source="BLTxVABKI-hKOuikqQmN-11" target="BLTxVABKI-hKOuikqQmN-4">
          <mxGeometry width="50" height="50" relative="1" as="geometry">
            <mxPoint x="620" y="230" as="sourcePoint" />
            <mxPoint x="475" y="320" as="targetPoint" />
          </mxGeometry>
        </mxCell>
        <mxCell id="BLTxVABKI-hKOuikqQmN-17" value="" style="endArrow=classic;html=1;rounded=0;entryX=1;entryY=0.75;entryDx=0;entryDy=0;exitX=0;exitY=0.5;exitDx=0;exitDy=0;" edge="1" parent="WIyWlLk6GJQsqaUBKTNV-1" source="BLTxVABKI-hKOuikqQmN-12" target="BLTxVABKI-hKOuikqQmN-4">
          <mxGeometry width="50" height="50" relative="1" as="geometry">
            <mxPoint x="630" y="240" as="sourcePoint" />
            <mxPoint x="485" y="330" as="targetPoint" />
          </mxGeometry>
        </mxCell>
        <mxCell id="BLTxVABKI-hKOuikqQmN-18" value="&lt;font face=&quot;Times New Roman&quot; style=&quot;font-size: 17px;&quot;&gt;brpop&lt;/font&gt;" style="text;html=1;strokeColor=none;fillColor=none;align=center;verticalAlign=middle;whiteSpace=wrap;rounded=0;fontSize=17;" vertex="1" parent="WIyWlLk6GJQsqaUBKTNV-1">
          <mxGeometry x="510" y="220" width="60" height="30" as="geometry" />
        </mxCell>
        <mxCell id="BLTxVABKI-hKOuikqQmN-19" value="&lt;font face=&quot;Times New Roman&quot; style=&quot;font-size: 17px;&quot;&gt;brpop&lt;/font&gt;" style="text;html=1;strokeColor=none;fillColor=none;align=center;verticalAlign=middle;whiteSpace=wrap;rounded=0;fontSize=17;" vertex="1" parent="WIyWlLk6GJQsqaUBKTNV-1">
          <mxGeometry x="510" y="280" width="60" height="30" as="geometry" />
        </mxCell>
        <mxCell id="BLTxVABKI-hKOuikqQmN-20" value="&lt;font face=&quot;Times New Roman&quot; style=&quot;font-size: 17px;&quot;&gt;brpop&lt;/font&gt;" style="text;html=1;strokeColor=none;fillColor=none;align=center;verticalAlign=middle;whiteSpace=wrap;rounded=0;fontSize=17;" vertex="1" parent="WIyWlLk6GJQsqaUBKTNV-1">
          <mxGeometry x="510" y="330" width="60" height="30" as="geometry" />
        </mxCell>
      </root>
    </mxGraphModel>
  </diagram>
</mxfile>
